<svg width="48" height="48" viewBox="0 0 48 48" fill="none" xmlns="http://www.w3.org/2000/svg">
<path d="M30.7264 26.5496C30.6628 25.7508 30.1249 25.0062 29.7135 24.7936C28.3536 24.1018 26.9614 23.7837 25.5693 23.6767C25.8221 22.6653 26.1071 21.6554 26.3599 20.6982C27.2779 17.4002 28.2272 14.2077 29.1128 10.9625C29.9035 8.091 31.2634 4.63322 30.4727 1.44076C30.3149 0.803124 29.6507 -0.261029 29.1442 0.0585019C26.2649 2.02562 23.7657 5.59039 21.4251 9.04817C19.1786 12.399 17.0272 16.0165 15.0658 19.8466C14.1165 21.6554 13.2309 23.5169 12.3766 25.4327C8.23238 26.7622 4.15181 28.8363 0.260425 31.6022C-0.562475 32.1885 0.766043 34.8475 1.46254 34.3696C4.46825 32.2413 7.56812 30.4853 10.7316 29.2086C8.61244 34.3696 6.74607 39.8487 5.16389 45.5931C4.84746 46.7101 6.39739 48.9454 6.77746 47.5617C8.70745 40.6989 11.0167 34.2098 13.7373 28.1459C14.3066 27.9319 14.8758 27.7721 15.4773 27.6138C17.8501 26.9747 20.2857 26.6024 22.69 26.4954C22.0579 29.2628 21.4565 32.0815 21.045 34.9545C20.6344 37.7732 20.5708 40.8059 22.5008 41.9756C22.9436 42.2423 23.1337 41.6033 23.07 40.9656C23.0064 40.3808 22.7222 39.9015 22.4372 39.582C22.4372 39.4764 22.4058 39.4222 22.4058 39.3166C22.4686 39.0499 22.4372 38.6248 22.4686 38.358C22.5636 37.5079 22.7222 36.709 22.8486 35.9116C23.1337 34.1556 23.4492 32.4538 23.7979 30.8048C24.1144 29.3156 24.4622 27.8791 24.8414 26.3899C26.645 26.3899 28.4486 26.6024 30.1563 27.5068C30.5991 27.7721 30.8206 27.1873 30.7264 26.5496ZM23.4179 23.5697C23.07 23.6239 22.7222 23.6239 22.4058 23.6239C20.0643 23.7295 17.7237 24.049 15.3823 24.5811C15.7623 23.8365 16.1416 23.0391 16.5216 22.293C18.4194 18.5699 20.4758 15.1121 22.6586 11.8669C24.5572 9.04817 26.5186 6.17524 28.7328 4.10114C28.67 4.36647 28.6064 4.57901 28.575 4.79299C28.3213 5.75015 28.0685 6.70732 27.8157 7.61171C27.3729 9.3677 26.8978 11.0695 26.4236 12.7713C25.3792 16.3888 24.3358 19.9536 23.4179 23.5697Z" fill="#CF9E39"/>
<path d="M28.5422 30.5923C28.5422 30.22 28.4472 29.7949 28.3208 29.5281C28.163 29.2086 27.9415 28.8363 27.6879 28.6765C27.6251 28.6238 27.5615 28.571 27.4987 28.5182C27.3715 28.464 27.2451 28.464 27.1186 28.5182C26.8336 28.7835 26.5808 29.103 26.3908 29.5809C26.2644 29.8477 26.2644 30.0602 26.328 30.4325C26.3908 30.8048 26.5494 31.2299 26.7072 31.4967C26.8972 31.762 27.1186 32.0815 27.3401 32.1343C27.4987 32.1885 27.7515 32.2941 27.8465 32.0288C28.0043 31.7092 28.163 31.4439 28.3522 31.2299C28.4158 31.1772 28.4794 31.1244 28.4794 31.0174C28.5422 30.9118 28.5736 30.7521 28.5422 30.5923Z" fill="#CF9E39"/>
<path d="M31.1045 38.7845C31.1682 30.1672 32.6545 21.7082 35.4388 14.4203C35.8816 13.2506 34.3631 10.9625 33.9516 11.9739C31.0731 19.5813 29.491 28.3042 29.396 37.3481C29.396 38.572 31.0731 40.4863 31.1045 38.7845ZM46.8593 4.52621C44.6765 0.855884 41.1337 2.0256 38.4759 3.08975C35.2173 4.41923 32.0538 6.60031 29.2068 9.52602C27.1818 11.5488 24.3661 14.6328 24.081 18.995C23.9869 20.1661 25.6318 22.1347 25.7582 20.3787C25.9483 17.453 28.0047 15.0066 29.3332 13.4631C31.5796 10.8027 34.1416 8.7814 36.7359 7.29216C39.2037 5.85569 42.2722 4.1539 44.8665 5.05829C48.6315 6.38777 44.265 13.8882 42.9365 15.804C40.2472 19.6341 36.9887 22.0805 33.5088 23.0391C32.6867 23.2516 33.9838 25.805 34.5531 25.805C35.8188 25.805 37.4638 25.7508 38.5709 27.0275C40.058 28.7307 38.7923 32.5066 37.843 34.0501C36.6409 36.0714 34.9959 37.6676 33.446 38.8901C31.801 40.1668 29.871 41.1254 28.1625 39.5819C27.8146 39.2624 27.4032 39.3166 27.3396 40.114C27.3082 40.8586 27.846 41.7102 28.1938 42.0298C30.3453 43.9441 32.6867 43.1995 34.8059 41.4977C36.7673 39.9015 39.2037 37.6676 40.3108 34.3154C41.3552 31.1771 40.8487 27.454 39.1401 25.2729C38.8237 24.8464 38.5072 24.5283 38.1908 24.2616C40.4372 22.9321 42.5573 20.9108 44.3923 18.2504C46.6701 15.0066 49.6749 9.2607 46.8593 4.52621Z" fill="#CF9E39"/>
</svg>
