<svg width="169" height="90" viewBox="0 0 169 90" fill="none" xmlns="http://www.w3.org/2000/svg">
<path d="M103.734 33.4629C103.599 32.456 102.459 31.5175 101.587 31.2496C98.7052 30.3777 95.7548 29.9767 92.8045 29.8419C93.3402 28.5671 93.9443 27.2942 94.4801 26.0878C96.4255 21.931 98.4373 17.9073 100.314 13.817C101.99 10.1978 104.872 5.83966 103.196 1.81592C102.862 1.01225 101.454 -0.328999 100.381 0.0737352C94.2788 2.55306 88.9821 7.04606 84.0216 11.4042C79.2607 15.6275 74.7012 20.187 70.5444 25.0145C68.5326 27.2942 66.6555 29.6405 64.845 32.0551C56.0622 33.7308 47.4142 36.3449 39.1672 39.8311C37.4232 40.5701 40.2387 43.9214 41.7148 43.3191C48.0848 40.6366 54.6544 38.4233 61.3589 36.8142C56.8677 43.3191 52.9122 50.2249 49.5591 57.4651C48.8885 58.8729 52.1733 61.6902 52.9788 59.9462C57.069 51.2964 61.963 43.1177 67.7289 35.4748C68.9353 35.2051 70.1417 35.0037 71.4164 34.8041C76.4452 33.9987 81.607 33.5294 86.7023 33.3946C85.3629 36.8825 84.0881 40.4352 83.2162 44.0562C82.346 47.6089 82.2111 51.4313 86.3014 52.9056C87.2399 53.2418 87.6426 52.4363 87.5078 51.6326C87.3729 50.8955 86.7706 50.2914 86.1665 49.8887C86.1665 49.7556 86.1 49.6873 86.1 49.5542C86.2331 49.218 86.1665 48.6823 86.2331 48.346C86.4344 47.2745 86.7706 46.2677 87.0385 45.2626C87.6426 43.0494 88.3115 40.9045 89.0504 38.8261C89.721 36.949 90.4582 35.1385 91.2618 33.2615C95.0842 33.2615 98.9066 33.5294 102.526 34.6693C103.464 35.0037 103.934 34.2665 103.734 33.4629ZM88.2449 29.707C87.5078 29.7753 86.7706 29.7753 86.1 29.7753C81.1378 29.9084 76.1773 30.3111 71.2151 30.9818C72.0205 30.0432 72.8242 29.0382 73.6297 28.0979C77.6516 23.4053 82.0098 19.0472 86.6358 14.9569C90.6595 11.4042 94.8163 7.78321 99.5089 5.16904C99.3759 5.50345 99.241 5.77134 99.1745 6.04103C98.6369 7.24743 98.1011 8.45383 97.5653 9.59371C96.6268 11.807 95.62 13.9519 94.615 16.0968C92.4017 20.6563 90.1903 25.1493 88.2449 29.707Z" fill="#CF9E39"/>
<path d="M99.1055 38.5582C99.1055 38.0889 98.9041 37.5531 98.6362 37.2169C98.3018 36.8142 97.8326 36.3449 97.295 36.1436C97.1619 36.077 97.0271 36.0105 96.894 35.944C96.6244 35.8757 96.3565 35.8757 96.0886 35.944C95.4845 36.2784 94.9487 36.6811 94.546 37.2835C94.2781 37.6197 94.2781 37.8876 94.4129 38.3568C94.546 38.8261 94.8822 39.3618 95.2166 39.6981C95.6193 40.0325 96.0886 40.4352 96.5578 40.5017C96.894 40.57 97.4298 40.7031 97.6312 40.3687C97.9656 39.9659 98.3018 39.6315 98.7028 39.3618C98.8376 39.2953 98.9724 39.2288 98.9724 39.094C99.1055 38.9609 99.172 38.7595 99.1055 38.5582Z" fill="#CF9E39"/>
<path d="M104.535 48.8837C104.67 38.0224 107.82 27.3608 113.72 18.1752C114.659 16.7009 111.441 13.817 110.569 15.0918C104.468 24.6801 101.115 35.6743 100.914 47.0731C100.914 48.6158 104.468 51.0286 104.535 48.8837ZM137.924 5.70484C133.298 1.07879 125.79 2.55309 120.157 3.89433C113.251 5.57 106.547 8.31901 100.513 12.0065C96.2212 14.556 90.2539 18.4431 89.6498 23.9411C89.4503 25.4172 92.9364 27.8983 93.2043 25.6851C93.6071 21.9976 97.9652 18.9141 100.781 16.9688C105.542 13.6157 110.971 11.068 116.469 9.191C121.7 7.3805 128.203 5.23558 133.701 6.37546C141.68 8.05112 132.426 17.5046 129.61 19.9192C123.911 24.7466 117.005 27.83 109.63 29.0382C107.888 29.3061 110.637 32.5244 111.843 32.5244C114.526 32.5244 118.012 32.4561 120.358 34.0652C123.51 36.2119 120.828 40.971 118.816 42.9164C116.268 45.464 112.782 47.4759 109.497 49.0167C106.011 50.6258 101.921 51.834 98.2996 49.8887C97.5625 49.486 96.6905 49.5543 96.5557 50.5593C96.4891 51.4978 97.629 52.5712 98.3662 52.9739C102.926 55.3867 107.888 54.4482 112.379 52.3033C116.536 50.2914 121.7 47.4759 124.046 43.2508C126.259 39.2954 125.186 34.6028 121.565 31.8538C120.894 31.3162 120.223 30.9153 119.553 30.579C124.314 28.9034 128.807 26.3557 132.696 23.0026C137.523 18.9141 143.891 11.6721 137.924 5.70484Z" fill="#CF9E39"/>
<path d="M27.4553 73.114L29.0843 68.2255L30.7617 73.114H27.4553ZM23.9062 77.082H28.3255V76.566H27.4715C26.8099 76.566 26.6481 76.0662 26.6481 75.7102C26.6481 75.4369 26.7613 75.0648 26.8746 74.7429L27.245 73.6947H30.9721L31.6966 75.8073C31.7452 75.9206 31.7614 76.0662 31.7614 76.1633C31.7614 76.3718 31.5204 76.566 31.1968 76.566H30.1324V77.082H35.1343V76.566H34.2299C33.7948 76.566 33.4874 76.4204 33.2626 75.8558L29.7621 65.5969H29.3252L25.857 75.3884C25.6646 75.9044 25.3248 76.566 24.5032 76.566H23.9062V77.082Z" fill="#CF9E39"/>
<path d="M36.4883 77.082H45.1507L45.361 72.7419H44.9583C44.9583 72.7419 44.7803 74.7268 44.0377 75.7264C43.5541 76.3557 42.7325 76.566 42.2632 76.566H40.005C39.6994 76.566 39.5699 76.4204 39.5699 76.1309V66.548C39.5699 66.2424 39.6994 66.1129 40.005 66.1129H41.4254V65.5969H36.4883V66.1129H37.6497C37.9572 66.1129 38.0866 66.2424 38.0866 66.548V76.1309C38.0866 76.4204 37.9572 76.566 37.6497 76.566H36.4883V77.082Z" fill="#CF9E39"/>
<path d="M47.2959 77.082H51.9741V76.566H50.8126C50.507 76.566 50.3775 76.4204 50.3775 76.1309V66.548C50.3775 66.2424 50.507 66.1129 50.8126 66.1129H51.9741V65.5969H47.2959V66.1129H48.4574C48.7648 66.1129 48.8942 66.2424 48.8942 66.548V76.1309C48.8942 76.4204 48.7648 76.566 48.4574 76.566H47.2959V77.082Z" fill="#CF9E39"/>
<path d="M53.6514 77.082H57.4917V76.566H56.911C56.3141 76.566 55.8934 76.0824 55.8934 75.2751V67.3553H55.9581L62.2976 77.3733H62.943V67.4038C62.943 66.5966 63.3799 66.1129 63.9768 66.1129H64.5575V65.5969H60.7172V66.1129H61.2979C61.8948 66.1129 62.2976 66.5966 62.2976 67.4038V74.5973L56.7006 65.5969H53.6514V66.1129H54.8128C55.1203 66.1129 55.2335 66.2424 55.2497 66.548V75.2751C55.2497 76.0824 54.8452 76.566 54.2321 76.566H53.6514V77.082Z" fill="#CF9E39"/>
<path d="M66.0732 77.082H75.0754L75.2696 72.758H74.8651C74.8651 72.758 74.6889 74.7429 73.9463 75.7426C73.4627 76.3718 72.6392 76.566 72.1718 76.566H69.59C69.2843 76.566 69.1549 76.4204 69.1549 76.1309V71.5337H70.5752C71.8158 71.5337 71.8967 72.8228 71.8967 73.7757H72.3174V68.7253H71.8967C71.8967 69.662 71.8158 70.9511 70.5752 70.9511H69.1549V66.548C69.1549 66.2424 69.2843 66.1129 69.59 66.1129H72.188C72.8334 66.1129 73.5742 66.2891 74.0758 67.0478C74.7194 68.0313 74.7356 69.2413 74.7356 69.2413H75.1401L75.0754 65.5969H66.0732V66.1129H67.2347C67.5421 66.1129 67.6716 66.2424 67.6716 66.548V76.1309C67.6716 76.4204 67.5421 76.566 67.2347 76.566H66.0732V77.082Z" fill="#CF9E39"/>
<path d="M84.8023 76.1309V71.3395H86.9796C88.1087 71.3395 89.2378 71.8555 89.2378 73.9519C89.2378 76.05 88.0925 76.566 86.9796 76.566H85.2374C84.9318 76.566 84.8023 76.4204 84.8023 76.1309ZM81.7207 77.082H87.1576C89.1893 77.082 90.9476 75.9853 90.9476 73.9519C90.9476 72.2744 89.3996 71.2262 88.1249 71.1291V71.0644C89.3025 70.8235 90.5934 69.9029 90.5934 68.3387C90.5934 66.726 88.8998 65.5969 86.9796 65.5969H81.7207V66.1129H82.8822C83.1896 66.1129 83.3191 66.2424 83.3191 66.548V76.1309C83.3191 76.4204 83.1896 76.566 82.8822 76.566H81.7207V77.082ZM84.8023 70.8235V66.548C84.8023 66.2424 84.9318 66.1129 85.2374 66.1129H87.0443C88.222 66.1129 89.1749 67.0317 89.1749 68.3387C89.1749 69.6458 88.8189 70.8235 86.9149 70.8235H84.8023Z" fill="#CF9E39"/>
<path d="M92.8506 77.082H97.5288V76.566H96.3673C96.0617 76.566 95.9322 76.4204 95.9322 76.1309V66.548C95.9322 66.2424 96.0617 66.1129 96.3673 66.1129H97.5288V65.5969H92.8506V66.1129H94.012C94.3195 66.1129 94.4489 66.2424 94.4489 66.548V76.1309C94.4489 76.4204 94.3195 76.566 94.012 76.566H92.8506V77.082Z" fill="#CF9E39"/>
<path d="M102.498 73.114L104.127 68.2255L105.805 73.114H102.498ZM98.9492 77.082H103.369V76.566H102.514C101.853 76.566 101.691 76.0662 101.691 75.7102C101.691 75.4369 101.804 75.0648 101.918 74.7429L102.288 73.6947H106.015L106.74 75.8073C106.788 75.9206 106.804 76.0662 106.804 76.1633C106.804 76.3718 106.563 76.566 106.24 76.566H105.175V77.082H110.177V76.566H109.273C108.838 76.566 108.53 76.4204 108.306 75.8558L104.805 65.5969H104.368L100.9 75.3884C100.708 75.9044 100.368 76.566 99.5461 76.566H98.9492V77.082Z" fill="#CF9E39"/>
<path d="M111.531 77.082H115.372V76.566H114.791C114.194 76.566 113.773 76.0824 113.773 75.2751V67.3553H113.838L120.177 77.3733H120.823V67.4038C120.823 66.5966 121.26 66.1129 121.857 66.1129H122.437V65.5969H118.597V66.1129H119.178C119.775 66.1129 120.177 66.5966 120.177 67.4038V74.5973L114.581 65.5969H111.531V66.1129H112.693C113 66.1129 113.113 66.2424 113.13 66.548V75.2751C113.13 76.0824 112.725 76.566 112.112 76.566H111.531V77.082Z" fill="#CF9E39"/>
<path d="M124.081 71.2424C124.081 74.2755 125.726 77.3733 128.856 77.3733C131.954 77.3733 132.663 74.4211 132.727 72.9037H132.147C132.017 74.84 131.098 76.8555 128.856 76.8555C126.372 76.8555 125.791 74.5326 125.791 71.2424C125.791 67.9522 126.275 65.8217 128.597 65.8217C129.872 65.8217 131.325 67.1773 132.066 69.9191H132.47V65.4351H132.066L131.792 66.2262C131.695 66.4671 131.647 66.5804 131.469 66.5804C131.325 66.5804 131.195 66.5157 131.017 66.3539C130.92 66.2747 130.793 66.1777 130.599 66.0482C130.18 65.7408 129.421 65.3057 128.597 65.3057C125.759 65.3057 124.081 68.0169 124.081 71.2424Z" fill="#CF9E39"/>
<path d="M138.052 73.114L139.681 68.2255L141.358 73.114H138.052ZM134.503 77.082H138.922V76.566H138.068C137.407 76.566 137.245 76.0662 137.245 75.7102C137.245 75.4369 137.358 75.0648 137.471 74.7429L137.842 73.6947H141.569L142.293 75.8073C142.342 75.9206 142.358 76.0662 142.358 76.1633C142.358 76.3718 142.117 76.566 141.793 76.566H140.729V77.082H145.731V76.566H144.827C144.391 76.566 144.084 76.4204 143.859 75.8558L140.359 65.5969H139.922L136.454 75.3884C136.261 75.9044 135.921 76.566 135.1 76.566H134.503V77.082Z" fill="#CF9E39"/>
<path d="M20.8076 83.3729H20.3509L19.5257 88.0187L17.7224 83.3729H17.023L16.124 88.4538H16.5807L17.3916 83.7936L19.2093 88.4538H19.9086L20.8076 83.3729Z" fill="#CF9E39"/>
<path d="M27.0802 83.3729H26.6235L26.0643 86.5839C26.0338 86.753 26.005 86.8932 25.9672 87.0334C25.7695 87.7832 25.2984 88.1895 24.4444 88.1895C23.6479 88.1895 23.2955 87.776 23.2955 87.2096C23.2955 87.0101 23.3171 86.8554 23.3693 86.5606L23.9284 83.3729H23.4717L22.9054 86.5911C22.8604 86.8123 22.8389 87.0029 22.8389 87.224C22.8389 88.0492 23.3621 88.5563 24.3779 88.5563C25.5627 88.5563 26.1884 87.9899 26.4095 87.091C26.4473 86.9363 26.4761 86.7817 26.5048 86.6199L27.0802 83.3729Z" fill="#CF9E39"/>
<path d="M33.4211 83.7486L33.4858 83.3729H29.311L29.2373 83.7486H31.1089L30.2765 88.4538H30.7332L31.5656 83.7486H33.4211Z" fill="#CF9E39"/>
<path d="M38.8543 84.4786C38.8543 83.8439 38.4551 83.4843 37.8079 83.4034C37.5795 83.3729 37.3818 83.3729 37.1229 83.3729H35.6216L34.7227 88.4538H35.1793L35.5839 86.156H36.6302C36.7471 86.156 36.8945 86.156 37.0348 86.1632C37.5202 86.1938 37.6533 86.5534 37.6605 87.0334C37.6748 87.9755 37.7126 88.2326 37.7557 88.4538H38.2502C38.1693 88.2632 38.1243 87.9683 38.1171 87.4002C38.1099 86.37 37.9697 86.0392 37.558 85.9583C38.2268 85.8396 38.8543 85.3326 38.8543 84.4786ZM37.2272 85.7587C37.042 85.7731 36.9251 85.7731 36.7112 85.7731H35.6504L36.0046 83.7558H37.0564C37.2991 83.7558 37.4537 83.763 37.6317 83.7864C38.0884 83.8511 38.3527 84.0956 38.3527 84.5595C38.3527 85.2661 37.8744 85.7066 37.2272 85.7587Z" fill="#CF9E39"/>
<path d="M41.0182 88.4538L41.9172 83.3729H41.4605L40.5615 88.4538H41.0182Z" fill="#CF9E39"/>
<path d="M46.6213 83.2704C45.032 83.2704 43.7878 84.5955 43.795 86.4653C43.7878 87.5404 44.2732 88.2704 45.1273 88.4897L44.7515 89.0057C45.1938 88.9626 45.4077 89.101 45.4077 89.3456C45.4077 89.5811 45.2154 89.7501 44.8324 89.7501C44.685 89.7501 44.5681 89.7357 44.4566 89.6979L44.4135 89.9407C44.516 89.9784 44.6418 90 44.8036 90C45.3268 90 45.7386 89.7932 45.7386 89.315C45.7386 89.0363 45.5552 88.8295 45.2225 88.7774L45.3934 88.5419C45.4886 88.5491 45.5839 88.5563 45.6864 88.5563C46.9755 88.5563 47.727 87.8137 48.0435 86.8411L48.0651 86.7673H47.6084L47.5796 86.8411C47.2776 87.6142 46.7184 88.1895 45.7745 88.1895C44.8989 88.1895 44.302 87.607 44.302 86.406C44.302 84.7716 45.3196 83.639 46.5332 83.639C47.4466 83.639 47.9482 84.0579 47.9482 84.9568V85.0305H48.4049L48.4121 84.9568C48.4552 83.9914 47.8439 83.2704 46.6213 83.2704Z" fill="#CF9E39"/>
<path d="M52.7846 82.74C52.8494 82.74 52.9303 82.7616 53.1011 82.8209C53.2844 82.8874 53.4031 82.9162 53.5344 82.9162C53.7483 82.9162 53.8957 82.8065 53.9407 82.4829H53.7124C53.689 82.5926 53.6386 82.6303 53.5649 82.6303C53.4984 82.6303 53.4175 82.607 53.2485 82.5494C53.0633 82.4829 52.9464 82.4523 52.8134 82.4523C52.5994 82.4523 52.4592 82.5638 52.4089 82.8874H52.6372C52.6588 82.776 52.7109 82.74 52.7846 82.74ZM53.4768 86.5911L53.8005 88.4538H54.2931L53.3582 83.3729H52.7037L49.9277 88.4538H50.4563L51.4506 86.5911H53.4768ZM53.4103 86.2082H51.6573L52.9752 83.7414L53.4103 86.2082Z" fill="#CF9E39"/>
<path d="M59.4785 83.2704C57.5709 83.2704 56.6504 84.8597 56.6504 86.3484C56.6504 87.6142 57.4091 88.5563 58.6748 88.5563C60.5824 88.5563 61.503 86.9669 61.503 85.4782C61.503 84.2125 60.7514 83.2704 59.4785 83.2704ZM58.7701 88.1895C57.8065 88.1895 57.1502 87.4667 57.1502 86.3484C57.1502 85.0971 57.9017 83.639 59.3886 83.639C60.3469 83.639 61.0085 84.3527 61.0085 85.4782C61.0085 86.7314 60.2516 88.1895 58.7701 88.1895Z" fill="#CF9E39"/>
<path d="M69.2619 83.2704C67.6726 83.2704 66.4284 84.5955 66.4356 86.4653C66.4284 87.7544 67.1278 88.5563 68.327 88.5563C69.6161 88.5563 70.3676 87.8137 70.6841 86.8411L70.7057 86.7673H70.249L70.2202 86.8411C69.9182 87.6142 69.359 88.1895 68.4151 88.1895C67.5395 88.1895 66.9426 87.607 66.9426 86.406C66.9426 84.7716 67.9602 83.639 69.1738 83.639C70.0872 83.639 70.5888 84.0579 70.5888 84.9568V85.0305H71.0455L71.0527 84.9568C71.0958 83.9914 70.4845 83.2704 69.2619 83.2704Z" fill="#CF9E39"/>
<path d="M75.9639 83.2704C74.0563 83.2704 73.1357 84.8597 73.1357 86.3484C73.1357 87.6142 73.8945 88.5563 75.1602 88.5563C77.0678 88.5563 77.9883 86.9669 77.9883 85.4782C77.9883 84.2125 77.2368 83.2704 75.9639 83.2704ZM75.2555 88.1895C74.2918 88.1895 73.6356 87.4667 73.6356 86.3484C73.6356 85.0971 74.3871 83.639 75.874 83.639C76.8323 83.639 77.4939 84.3527 77.4939 85.4782C77.4939 86.7314 76.737 88.1895 75.2555 88.1895Z" fill="#CF9E39"/>
<path d="M85.7628 83.3729H85.0131L82.5014 87.9971L81.6096 83.3729H80.8599L79.9609 88.4538H80.4176L81.2357 83.7702L82.1256 88.4538H82.701L85.2396 83.8223L84.409 88.4538H84.8657L85.7628 83.3729Z" fill="#CF9E39"/>
<path d="M90.4978 83.4034C90.2694 83.3729 90.0698 83.3729 89.8127 83.3729H88.4068L87.5078 88.4538H87.9645L88.3474 86.3035H89.2967C89.5556 86.3035 89.7462 86.3035 89.9889 86.2747C90.8286 86.1632 91.5585 85.5825 91.5585 84.5595C91.5585 83.8745 91.1378 83.4915 90.4978 83.4034ZM90.0267 85.8774C89.8415 85.9061 89.6437 85.9133 89.401 85.9133H88.414L88.7969 83.763H89.784C90.0267 83.763 90.2245 83.7702 90.3935 83.8008C90.7764 83.8673 91.0641 84.11 91.0641 84.617C91.0641 85.4063 90.5787 85.7875 90.0267 85.8774Z" fill="#CF9E39"/>
<path d="M96.0576 83.2704C94.15 83.2704 93.2295 84.8597 93.2295 86.3484C93.2295 87.6142 93.9882 88.5563 95.2539 88.5563C97.1615 88.5563 98.0821 86.9669 98.0821 85.4782C98.0821 84.2125 97.3305 83.2704 96.0576 83.2704ZM95.3492 88.1895C94.3856 88.1895 93.7293 87.4667 93.7293 86.3484C93.7293 85.0971 94.4808 83.639 95.9677 83.639C96.926 83.639 97.5876 84.3527 97.5876 85.4782C97.5876 86.7314 96.8307 88.1895 95.3492 88.1895Z" fill="#CF9E39"/>
<path d="M104.186 84.4786C104.186 83.8439 103.787 83.4843 103.14 83.4034C102.912 83.3729 102.714 83.3729 102.455 83.3729H100.954L100.055 88.4538H100.511L100.916 86.156H101.962C102.079 86.156 102.227 86.156 102.367 86.1632C102.852 86.1938 102.985 86.5534 102.992 87.0334C103.007 87.9755 103.045 88.2326 103.088 88.4538H103.582C103.501 88.2632 103.456 87.9683 103.449 87.4002C103.442 86.37 103.302 86.0392 102.89 85.9583C103.559 85.8396 104.186 85.3326 104.186 84.4786ZM102.559 85.7587C102.374 85.7731 102.257 85.7731 102.043 85.7731H100.982L101.337 83.7558H102.388C102.631 83.7558 102.786 83.763 102.964 83.7864C103.42 83.8511 103.685 84.0956 103.685 84.5595C103.685 85.2661 103.206 85.7066 102.559 85.7587Z" fill="#CF9E39"/>
<path d="M110.488 83.7486L110.553 83.3729H106.378L106.305 83.7486H108.176L107.344 88.4538H107.801L108.633 83.7486H110.488Z" fill="#CF9E39"/>
<path d="M114.913 86.5911L115.237 88.4538H115.73L114.795 83.3729H114.14L111.364 88.4538H111.893L112.887 86.5911H114.913ZM114.847 86.2082H113.094L114.412 83.7414L114.847 86.2082Z" fill="#CF9E39"/>
<path d="M123.748 83.3729H122.998L120.487 87.9971L119.595 83.3729H118.845L117.946 88.4538H118.403L119.221 83.7702L120.111 88.4538H120.686L123.225 83.8223L122.394 88.4538H122.851L123.748 83.3729Z" fill="#CF9E39"/>
<path d="M126.782 83.7486H129.544L129.618 83.3729H126.392L125.493 88.4538H128.792L128.859 88.078H126.016L126.362 86.1057H128.94L129.006 85.7227H126.435L126.782 83.7486Z" fill="#CF9E39"/>
<path d="M135.86 83.3729H135.404L134.578 88.0187L132.775 83.3729H132.076L131.177 88.4538H131.633L132.444 83.7936L134.262 88.4538H134.961L135.86 83.3729Z" fill="#CF9E39"/>
<path d="M142.2 83.7486L142.265 83.3729H138.09L138.017 83.7486H139.888L139.056 88.4538H139.512L140.345 83.7486H142.2Z" fill="#CF9E39"/>
<path d="M146.625 86.5911L146.949 88.4538H147.442L146.507 83.3729H145.852L143.076 88.4538H143.605L144.599 86.5911H146.625ZM146.559 86.2082H144.806L146.124 83.7414L146.559 86.2082Z" fill="#CF9E39"/>
<path d="M153.024 88.078H150.181L151.014 83.3729H150.557L149.658 88.4538H152.957L153.024 88.078Z" fill="#CF9E39"/>
<path d="M0.999987 72.9244L21.3686 73.257" stroke="#CF9E39" stroke-width="0.997494"/>
<path d="M147.774 72.9244L168.143 73.257" stroke="#CF9E39" stroke-width="0.997494"/>
</svg>
